<svg id="Layer_1" data-name="Layer 1" xmlns="http://www.w3.org/2000/svg" width="194.64" height="54.53" viewBox="0 0 194.64 54.53">
  <defs>
    <style>
      .cls-1 {
        font-size: 28px;
        font-family: FiraSansCondensed-SemiBold, Fira Sans Condensed;
        font-weight: 600;
      }

      .cls-2 {
        letter-spacing: -0.03em;
      }

      .cls-3 {
        letter-spacing: 0em;
      }

      .cls-4 {
        letter-spacing: -0.01em;
      }

      .cls-5 {
        letter-spacing: -0.02em;
      }

      .cls-6 {
        letter-spacing: -0.01em;
      }

      .cls-7 {
        letter-spacing: -0.01em;
      }

      .cls-8 {
        fill: #c0b399;
      }

      .cls-10, .cls-11, .cls-12, .cls-13, .cls-14, .cls-15, .cls-8, .cls-9 {
        fill-rule: evenodd;
      }

      .cls-9 {
        fill: #fff;
      }

      .cls-10 {
        fill: #ece1b2;
      }

      .cls-11 {
        fill: #462b17;
      }

      .cls-12 {
        fill: #fffdfb;
      }

      .cls-13 {
        fill: #ecc4b2;
      }

      .cls-14 {
        fill: #e2a589;
      }

      .cls-15 {
        fill: #fdfaf3;
      }
    </style>
  </defs>
  <text class="cls-1" transform="translate(0 36.01) scale(0.98 1)"><tspan class="cls-2">T</tspan><tspan class="cls-3" x="12.74" y="0">rip</tspan><tspan class="cls-4" x="45.08" y="0">p</tspan><tspan x="59.92" y="0">y</tspan><tspan class="cls-2" x="73.08" y="0">T</tspan><tspan class="cls-5" x="85.82" y="0">r</tspan><tspan class="cls-6" x="95.31" y="0">a</tspan><tspan class="cls-7" x="108.83" y="0">v</tspan><tspan x="121.66" y="0">el</tspan></text>
  <path class="cls-8" d="M178,57.71" transform="translate(-3.7 -3.92)"/>
  <path class="cls-8" d="M174.38,56.16c1.62,2.78,4.44,2.74,6.71,1.42A5.93,5.93,0,0,0,184,53.8a16.26,16.26,0,0,0,.42-4,5.81,5.81,0,0,0,3.3-4.92,6.08,6.08,0,0,0-1.33-4.28,5.25,5.25,0,0,0,1.25-2.25,5.54,5.54,0,0,0,.19-1.47,5.66,5.66,0,0,0-2.27-4.82c3.88-2.45,8.56-6.08,9.81-10.67a8.73,8.73,0,0,0,.21-3.72,4.09,4.09,0,0,0-1.31-2.9c-2.73-3.15-6.64-2.6-10.35-1.61a28.08,28.08,0,0,0-5.43,2.2,5.53,5.53,0,0,0-2.08-3.31,4.14,4.14,0,0,0-3.48-.78,5.5,5.5,0,0,0-2.19-3.59c-1.92-1.4-3.8-.89-5.59,0-2.21-1.67-4.36-3.15-7.09-1.72a6.33,6.33,0,0,0-3.36,3.88,6.66,6.66,0,0,0,1.25,5.58c2.35,3.37,4.75,6.67,7.15,10l-4.42,3.21a10.49,10.49,0,0,0-2.37-1.48c-2.22-.95-4.53-.05-6.46,1.29a5,5,0,0,0-2,2.8,5.93,5.93,0,0,0,.81,4.66c.32.52.68,1,1,1.54a6.28,6.28,0,0,0-.31.86,6.2,6.2,0,0,0,.17,3.71,5.13,5.13,0,0,0,3.78,3.34c.15.61.34,1.21.53,1.84,1,3.09,3.54,4.46,6.16,3.18a8,8,0,0,0,4.59-5c0-.05,0-.11,0-.17a15,15,0,0,0,.29-3L170,39.91l3.33,13.22a10.72,10.72,0,0,0,1,3" transform="translate(-3.7 -3.92)"/>
  <path class="cls-8" d="M153.25,30.57l0,0a1.3,1.3,0,0,1,0-.18S153.25,30.41,153.25,30.57Z" transform="translate(-3.7 -3.92)"/>
  <path class="cls-9" d="M198,19.86a8.86,8.86,0,0,0,.21-3.71,4.45,4.45,0,0,0-1.34-2.91c-2.73-3.15-6.62-2.55-10.34-1.56a26.41,26.41,0,0,0-5.41,2.15A5.47,5.47,0,0,0,179,10.55a4.14,4.14,0,0,0-3.47-.81,5.35,5.35,0,0,0-2.16-3.54c-1.95-1.45-3.81-.9-5.62,0-2.17-1.69-4.36-3.15-7-1.74a6.31,6.31,0,0,0-3.39,3.89,6.63,6.63,0,0,0,1.26,5.6c2.35,3.37,4.72,6.67,7.13,10l-4.42,3.18a11.33,11.33,0,0,0-2.36-1.49c-2.23-.95-4.52,0-6.43,1.31a5,5,0,0,0-2,2.82,5.76,5.76,0,0,0,.83,4.64,15.5,15.5,0,0,0,1,1.54,5,5,0,0,0-.33.89,5.94,5.94,0,0,0,.19,3.68,5.08,5.08,0,0,0,3.73,3.36c.2.59.38,1.22.54,1.81,1,3.09,3.54,4.49,6.2,3.19A7.85,7.85,0,0,0,167.14,44a2.5,2.5,0,0,0,.07-.26,11.39,11.39,0,0,0,.29-3l5.14-2.35L176,51.61a12.13,12.13,0,0,0,1.06,3c1.6,2.72,4.4,2.72,6.72,1.38a5.89,5.89,0,0,0,2.88-3.77,17.36,17.36,0,0,0,.44-4,6.32,6.32,0,0,0,3.05-3.66,6.56,6.56,0,0,0,.2-1.24A5.73,5.73,0,0,0,189,39.11a5.3,5.3,0,0,0,1.27-2.28,6.44,6.44,0,0,0,.21-1.47,5.69,5.69,0,0,0-2.27-4.83C192.07,28.07,196.77,24.44,198,19.86Zm-42.12,9.2,0,0a1.14,1.14,0,0,1,0-.19S155.89,28.9,155.9,29.06Z" transform="translate(-3.7 -3.92)"/>
  <path class="cls-10" d="M177.52,15.72a1.56,1.56,0,0,0-.09-1.06,1.15,1.15,0,0,0-1.67-.62l-4.67,2.68,1.16,2.52,4.67-2.68A1.44,1.44,0,0,0,177.52,15.72Z" transform="translate(-3.7 -3.92)"/>
  <path class="cls-11" d="M178.19,16.26c.43-1.57-1-3.62-2.71-2.53l-5.22,3L172,20.47l5.19-3A1.87,1.87,0,0,0,178.19,16.26Zm-1.26-.42a.67.67,0,0,1-.29.41l-4.17,2.42-.6-1.34,4.13-2.4a.6.6,0,0,1,.52,0,.72.72,0,0,1,.39.38A1,1,0,0,1,176.93,15.84Z" transform="translate(-3.7 -3.92)"/>
  <path class="cls-10" d="M171.87,11.4a1.65,1.65,0,0,0-.07-1.09,1.21,1.21,0,0,0-1.68-.62l-4.68,2.71,1.16,2.52,4.68-2.71A1.29,1.29,0,0,0,171.87,11.4Z" transform="translate(-3.7 -3.92)"/>
  <path class="cls-11" d="M172.52,11.89c.42-1.54-1-3.5-2.66-2.53l-5.19,3,1.72,3.74,5.19-3A2,2,0,0,0,172.52,11.89Zm-1.17-.44a.73.73,0,0,1-.33.44l-4.13,2.39L166.28,13l4.15-2.43C170.93,10.25,171.52,10.83,171.35,11.45Z" transform="translate(-3.7 -3.92)"/>
  <path class="cls-12" d="M181.36,21.71a.24.24,0,0,0-.09-.27L163.55,8.24a.74.74,0,0,0-.86-.08L161.17,9a1,1,0,0,0-.44.6,1.12,1.12,0,0,0,.16.95l11.56,16.12c.08.11.17.14.26.1l8.56-5A.24.24,0,0,0,181.36,21.71Z" transform="translate(-3.7 -3.92)"/>
  <path class="cls-11" d="M181.89,21.89a1,1,0,0,0-.32-1L163.85,7.67a1.33,1.33,0,0,0-1.49-.12l-1.48.86a1.75,1.75,0,0,0-.74,1,.22.22,0,0,0,0,.16,2,2,0,0,0,.28,1.43L172,27.14a.72.72,0,0,0,1,.24l8.56-5A.81.81,0,0,0,181.89,21.89Zm-1.51-.3L172.71,26,161.36,10.16a.37.37,0,0,1-.06-.27.39.39,0,0,1,.17-.25L163,8.78c.09-.09.22,0,.32,0Z" transform="translate(-3.7 -3.92)"/>
  <path class="cls-10" d="M186.66,35.61a1.5,1.5,0,0,0-.08-1.06,1.22,1.22,0,0,0-1.68-.63l-4.67,2.68,1.16,2.53,4.67-2.68A1.42,1.42,0,0,0,186.66,35.61Z" transform="translate(-3.7 -3.92)"/>
  <path class="cls-11" d="M187.3,36.14c.42-1.55-1-3.52-2.65-2.57l-5.19,3,1.69,3.72,5.21-3A2,2,0,0,0,187.3,36.14Zm-1.16-.49a.75.75,0,0,1-.34.48l-4.12,2.36-.61-1.31,4.14-2.4a.6.6,0,0,1,.87.33A.67.67,0,0,1,186.14,35.65Z" transform="translate(-3.7 -3.92)"/>
  <path class="cls-10" d="M186.56,43.28a1.69,1.69,0,0,0-.1-1.1,1.22,1.22,0,0,0-1.68-.63l-4.68,2.72,1.19,2.53,4.64-2.69A1.35,1.35,0,0,0,186.56,43.28Z" transform="translate(-3.7 -3.92)"/>
  <path class="cls-11" d="M187.26,43.78c.42-1.52-.93-3.45-2.56-2.59l-5.19,3,1.72,3.74,5.19-3A2,2,0,0,0,187.26,43.78Zm-1.08-.47a.77.77,0,0,1-.32.4l-4.13,2.4-.64-1.33,4.13-2.39c.55-.32,1.14.26,1,.88Z" transform="translate(-3.7 -3.92)"/>
  <path class="cls-12" d="M183.18,51.19a1.09,1.09,0,0,0,0-.25l.64-23.87c0-.2-.14-.3-.26-.22l-8.57,5a.17.17,0,0,0-.11.12.16.16,0,0,0,0,.12L180,52a.92.92,0,0,0,1.31.65l1.48-.86A1,1,0,0,0,183.18,51.19Z" transform="translate(-3.7 -3.92)"/>
  <path class="cls-11" d="M183.74,51.43a2,2,0,0,0,.07-.43l.64-23.88a1,1,0,0,0-.35-.81.75.75,0,0,0-.8-.06l-8.56,5a1,1,0,0,0-.36.55,1.08,1.08,0,0,0,0,.47l5.05,20a1.47,1.47,0,0,0,2.12,1.08l1.48-.86A1.61,1.61,0,0,0,183.74,51.43ZM182.62,51a.36.36,0,0,1-.14.21l-1.49.89a.31.31,0,0,1-.43-.24l-5-19.58,7.67-4.45-.63,23.07A.34.34,0,0,1,182.62,51Z" transform="translate(-3.7 -3.92)"/>
  <path class="cls-13" d="M194.66,18.34c.42-1.55-.63-3.31-2.22-3.23a22.88,22.88,0,0,0-11.15,3.36l-4.73,2.78L158.91,33.92a11.3,11.3,0,0,0-3.29,3.75,1.88,1.88,0,0,0-.12.3,1.39,1.39,0,0,0,1.11,1.8,9.7,9.7,0,0,0,4.62-.81l19.42-8.83,4.76-2.77a25.29,25.29,0,0,0,8.88-8.22A2.52,2.52,0,0,0,194.66,18.34Z" transform="translate(-3.7 -3.92)"/>
  <path class="cls-11" d="M195.23,18.52c.54-2-.81-4.2-2.82-4.1A23.34,23.34,0,0,0,181,17.89l-4.73,2.74L158.58,33.31a12.29,12.29,0,0,0-3.47,4c-.07.14-.11.28-.19.45h0a2,2,0,0,0,1.62,2.66,9.73,9.73,0,0,0,4.89-.87l19.44-8.82L185.67,28a25.39,25.39,0,0,0,9.07-8.43A2.87,2.87,0,0,0,195.23,18.52Zm-1.13-.39a1.68,1.68,0,0,1-.26.56,25,25,0,0,1-8.7,8.09l-4.75,2.73L161,38.36a9.83,9.83,0,0,1-4.4.77.73.73,0,0,1-.5-.39.79.79,0,0,1-.06-.54.71.71,0,0,1,.08-.18,10.42,10.42,0,0,1,3.09-3.55l17.65-12.66,4.72-2.74a21.92,21.92,0,0,1,10.88-3.3A1.8,1.8,0,0,1,194.1,18.13Z" transform="translate(-3.7 -3.92)"/>
  <path class="cls-14" d="M163.59,42.65a2.84,2.84,0,0,0,.1-.72l.13-7a1.34,1.34,0,0,0-.49-1.06L158.18,30a2,2,0,0,0-2.3-.14l-1.72,1a.49.49,0,0,0-.23.31.65.65,0,0,0,.07.51l3.84,5.86a1,1,0,0,1,.18.39l2,6.95a.46.46,0,0,0,.69.34l1.72-1A2.57,2.57,0,0,0,163.59,42.65Z" transform="translate(-3.7 -3.92)"/>
  <path class="cls-11" d="M164.16,42.87a3.22,3.22,0,0,0,.12-.88l.13-7a2.16,2.16,0,0,0-.75-1.68l-5.15-3.93a2.56,2.56,0,0,0-2.89-.2l-1.73,1a1.31,1.31,0,0,0-.54.68l0,.17a1.58,1.58,0,0,0,.16,1l3.87,5.87a.46.46,0,0,1,.09.19l2,6.95a1,1,0,0,0,1.51.73l1.73-1A3.16,3.16,0,0,0,164.16,42.87ZM163,42.43a1.77,1.77,0,0,1-.82,1.06l-1.6.89-2-6.77a2.68,2.68,0,0,0-.27-.58l-3.76-5.74,1.57-.95a1.57,1.57,0,0,1,1.7.16L163,34.42a.64.64,0,0,1,.26.5l-.13,7A2.15,2.15,0,0,1,163,42.43Z" transform="translate(-3.7 -3.92)"/>
  <path class="cls-15" d="M183.3,26a.7.7,0,0,0,0-.47.58.58,0,0,0-.79-.38l-9,4.61a.62.62,0,0,0-.32.4.79.79,0,0,0,0,.5.57.57,0,0,0,.8.33l9-4.56A.73.73,0,0,0,183.3,26Z" transform="translate(-3.7 -3.92)"/>
  <path class="cls-15" d="M188,23.57a.73.73,0,0,0,0-.48.58.58,0,0,0-.8-.34L184.73,24a.64.64,0,0,0-.33.41.76.76,0,0,0,0,.47.59.59,0,0,0,.79.38L187.68,24A.71.71,0,0,0,188,23.57Z" transform="translate(-3.7 -3.92)"/>
</svg>
