<svg id="Layer_1" data-name="Layer 1" xmlns="http://www.w3.org/2000/svg" width="336.59" height="59.3" viewBox="0 0 336.59 59.3">
  <defs>
    <style>
      .cls-1 {
        fill: #feffff;
      }

      .cls-1, .cls-2, .cls-3 {
        fill-rule: evenodd;
      }

      .cls-2 {
        fill: #9f7e69;
      }

      .cls-3, .cls-4 {
        opacity: 0;
      }

      .cls-5 {
        font-size: 25.22px;
        font-family: FiraSansCondensed-ExtraLight, Fira Sans Condensed;
        font-weight: 200;
      }

      .cls-6 {
        letter-spacing: -0.03em;
      }

      .cls-7 {
        letter-spacing: 0em;
      }

      .cls-8 {
        letter-spacing: 0em;
      }

      .cls-9 {
        letter-spacing: -0.02em;
      }

      .cls-10 {
        letter-spacing: 0em;
      }

      .cls-11, .cls-12, .cls-13, .cls-14, .cls-15, .cls-16 {
        fill: none;
      }

      .cls-12, .cls-13, .cls-14, .cls-15, .cls-16 {
        stroke: #000;
      }

      .cls-12, .cls-13, .cls-15, .cls-16 {
        stroke-linecap: round;
      }

      .cls-12, .cls-13, .cls-15 {
        stroke-linejoin: round;
      }

      .cls-13 {
        stroke-dasharray: 2.02 3.03;
      }

      .cls-14 {
        stroke-linecap: square;
      }

      .cls-14, .cls-16 {
        stroke-miterlimit: 10;
      }

      .cls-14, .cls-15 {
        stroke-dasharray: 3;
      }

      .cls-16 {
        stroke-dasharray: 0;
      }
    </style>
  </defs>
  <path class="cls-1" d="M165.33,8.07A3.8,3.8,0,0,0,161.94,10c-.7,1,9.91,9.31,9,9.85l-2.31,1.64A86.71,86.71,0,0,1,159,27.77c-.27-1.58-.51-3.23-.81-4.81s-1-3.28-2.13-3.28H156c-.42.06-1.62.49-1.73,1.34v3.77c0,1.09.07,2.25.15,3.34h-.46a1.76,1.76,0,0,0-1.2.43.53.53,0,0,0-.27.54,2.14,2.14,0,0,0,.58,1.77,1.82,1.82,0,0,0,1.58,0,.41.41,0,0,0,.19-.25,2.9,2.9,0,0,0,.35.8,7.84,7.84,0,0,0-2.2,2.3c-.61.92-1.31,2.92-.27,3.71a1.51,1.51,0,0,0,.93.29,5.64,5.64,0,0,0,2.2-.71,9.45,9.45,0,0,0,2.23-1.4l.16-.06a17.34,17.34,0,0,0-.5,2.37c-.19,1.19.39,2.37,1.17,2.37h.06c.89-.12,1.5-1.46,2-2.49a8,8,0,0,0,.46-1.16h.19a25.61,25.61,0,0,1,6.21-1.52,23.38,23.38,0,0,0,5.71-1.21c-.74,3.65-1.59,7.23-2.4,10.82a71.53,71.53,0,0,0-2.15,13.68.78.78,0,0,0,.46.85,3,3,0,0,0,.52,0c3.24,0,5.24-4.81,7.11-8.73a12.9,12.9,0,0,0,1.76.18,2.54,2.54,0,0,0,2.29-1,3.9,3.9,0,0,0,.31-3.28,1.59,1.59,0,0,0-1.32-1.06.78.78,0,0,0-.22,0c.88-1.58,1.73-3.16,2.58-4.87,0,.07,0,.07,0,.07a1.63,1.63,0,0,0,.64.13c1.32,0,2.55-1.66,2.94-3.6a3.3,3.3,0,0,0-.11-2.13.83.83,0,0,0-.64-.45.52.52,0,0,0-.36.15,45.13,45.13,0,0,0,1.38-4.87,1.13,1.13,0,0,0-.07-.6l.46-1c3.47-.48,6.86-2.43,10.18-4.25,1.08-.61,2.93-1,3.62-2.68.58-1.27-.34-2.43-1-3a25,25,0,0,0-4.47-3.22,11.7,11.7,0,0,0-4.59-1.94,5.94,5.94,0,0,0-.94-.06,17.78,17.78,0,0,0-4.58.85c-1.5.42-3,.91-4.47,1.46h0c-.79,0-7.46-4.73-12.95-6.88A6.11,6.11,0,0,0,165.33,8.07Zm-9.41,23.77h0a20.5,20.5,0,0,0-2.77,3.4,7.6,7.6,0,0,1,.69-1.33A15.63,15.63,0,0,1,155.92,31.84Z" transform="translate(-20.48)"/>
  <path class="cls-2" d="M155.74,31.15l-.09,0a6.82,6.82,0,0,0-2.7,2.55c-.61.92-1.31,2.92-.27,3.71a1.51,1.51,0,0,0,.93.29,5.64,5.64,0,0,0,2.2-.71,8.09,8.09,0,0,0,2.89-2.07.51.51,0,0,0-.32-.85.37.37,0,0,0-.3.18,5.84,5.84,0,0,1-2,1.4,4.54,4.54,0,0,1-2.7.85c-1.08-.12.19-2.19.46-2.61a15.63,15.63,0,0,1,2.08-2.07A.39.39,0,0,0,155.74,31.15Z" transform="translate(-20.48)"/>
  <path class="cls-2" d="M156.11,19.74H156c-.46.06-1.62.49-1.74,1.28a16.06,16.06,0,0,0,0,1.7v2.07a41.34,41.34,0,0,0,.23,4.31c.12.92.31,2.07.89,2.5a.33.33,0,0,0,.17,0c.21,0,.44-.16.29-.53-1.07-2.75-.72-6.51-.69-9.66A1.43,1.43,0,0,1,156,21a.75.75,0,0,1,.51.21,5.65,5.65,0,0,1,.77,2.13c.39,1.76.39,3.83.89,5.53a.47.47,0,0,0,.45.34c.27,0,.54-.24.47-.7-.31-1.83-.54-3.65-.88-5.47C157.9,21.49,157.27,19.74,156.11,19.74Z" transform="translate(-20.48)"/>
  <path class="cls-2" d="M164.8,7.21a2.55,2.55,0,0,0-2.29,1.16c-.46.67-1,2.37-.3,3a10,10,0,0,0,1.38,1,16.69,16.69,0,0,1,1.66,1.46c1.12,1.09,2.24,2.12,3.32,3.28.85.91,1.62,1.82,2.43,2.67-.77.55-1.58,1.1-2.35,1.64a80.5,80.5,0,0,1-9.76,6.39c-.31.11-.22.81.06.81a.15.15,0,0,0,.09,0c4-1.34,7.72-4.2,11.42-6.69a26.46,26.46,0,0,1,5.78-3.22c2.12-.79,4.24-1.64,6.36-2.31a29.52,29.52,0,0,1,6-1.52l.54,0a8.07,8.07,0,0,1,4.2,1.23c1.62.86,3.12,2.07,4.7,3.11a3.81,3.81,0,0,1,1.43,1.15c.27.37-.35.73-.5.91a20.59,20.59,0,0,1-2.85,1.7c-1,.61-2.09,1.22-3.13,1.77a19.74,19.74,0,0,1-6.74,2.43c-.53.06-.51,1.1,0,1.1h0c3.63-.36,7.14-2.43,10.53-4.31,1.12-.61,2.93-1,3.66-2.68.54-1.27-.42-2.43-1-3A28.44,28.44,0,0,0,195,15a12.07,12.07,0,0,0-4.55-1.88,5.94,5.94,0,0,0-.94-.06,17.78,17.78,0,0,0-4.58.85c-1.07.3-2.12.67-3.2,1a.34.34,0,0,0-.07-.18,9,9,0,0,0-3.09-2.31,16.5,16.5,0,0,0-1.62-.73c-.54-.18-1.15-.31-1.73-.55-2.28-1-4.51-2.13-6.75-3a11.31,11.31,0,0,0-3.39-.91Zm0,1.54c2.43,0,6.21,2,7.12,2.42s1.55.73,2.36,1.16,1.5,1,2.27,1.52,1.51,1,2.28,1.39a7.26,7.26,0,0,0,.88.49l-.88.3a43.19,43.19,0,0,0-5.13,2.19c-.62.37-1.2.73-1.78,1.1-1.5-1.52-3-2.86-4.55-4.32-.81-.73-1.62-1.52-2.46-2.25s-1.47-1.52-2.2-2.19C162.73,9.22,163.59,8.75,164.76,8.75Z" transform="translate(-20.48)"/>
  <path class="cls-2" d="M182.94,23.82a6.13,6.13,0,0,0-2.5.54,10.38,10.38,0,0,0-3.62,2.25,7.72,7.72,0,0,0-2.31,3.47c-.11.37.07.54.25.54a.33.33,0,0,0,.25-.12l0-.06a14,14,0,0,1,5.4-4.44,6,6,0,0,1,2.63-.56l.49,0a3.87,3.87,0,0,1,1.31.48c.4.29.67.86,1.16.86H186c.24,0,.43-.24.47-.54.11-1.52-1.66-2.13-2.35-2.31A6.21,6.21,0,0,0,182.94,23.82Z" transform="translate(-20.48)"/>
  <path class="cls-2" d="M185.77,29a.66.66,0,0,0-.62.59c-1.51,6.87-4.71,12.16-7.67,17.51-1.2,2.19-2.13,4.68-3.32,6.93-1.09,2.06-2.38,3.76-4.09,3.76h0a88.1,88.1,0,0,1,1.88-12.51,134.08,134.08,0,0,0,2.66-13.86c0-.29-.09-.42-.24-.42a.36.36,0,0,0-.33.35v-.06c-.89,4.56-1.93,8.94-2.94,13.44a69.21,69.21,0,0,0-2.15,13.68c0,.42.15.79.42.85a3.23,3.23,0,0,0,.53,0c3.86,0,5.93-6.85,8.15-10.8,3.23-5.72,6.63-11.31,8.25-18.67C186.39,29.29,186.09,29,185.77,29Z" transform="translate(-20.48)"/>
  <path class="cls-2" d="M185.23,34.46a.93.93,0,0,0-.78.54c-.14.29,0,.68.23.68h.08a1.73,1.73,0,0,1,.39-.15c.07,0,.12,0,.15.15a3.1,3.1,0,0,1-.15,1.46,3.49,3.49,0,0,1-.89,1.58,2,2,0,0,1-1.44.62h-.22c-.42.06-.61,1-.15,1.21a1.48,1.48,0,0,0,.64.14c1.31,0,2.51-1.67,2.94-3.6a3.48,3.48,0,0,0-.11-2.19A.86.86,0,0,0,185.23,34.46Z" transform="translate(-20.48)"/>
  <path class="cls-2" d="M180,45.29a1.62,1.62,0,0,0-.83.23c-.33.23-.2.85.11.85h.28c.69,0,1.3.29,1.19,1.65a1.37,1.37,0,0,1-1.11,1.28,2,2,0,0,1-.43,0c-.55,0-1.12-.17-1.67-.17a1.77,1.77,0,0,0-.72.13c-.42.18-.35,1.15.08,1.15a12.33,12.33,0,0,0,1.85.2,2.55,2.55,0,0,0,2.31-1,3.74,3.74,0,0,0,.31-3.28A1.45,1.45,0,0,0,180,45.29Z" transform="translate(-20.48)"/>
  <path class="cls-2" d="M160,32.35a2,2,0,0,0-1.25.46c-.35.25,0,.79.23.79a4.15,4.15,0,0,1,1.23-.12,2.37,2.37,0,0,1,1.08.73.34.34,0,0,0,.25.13c.32,0,.59-.55.29-1A2.41,2.41,0,0,0,160,32.35Z" transform="translate(-20.48)"/>
  <path class="cls-2" d="M159.18,33.3a.27.27,0,0,0-.25.18,18.43,18.43,0,0,0-1.23,4.44c-.19,1.19.39,2.37,1.17,2.37h.06c.89-.12,1.5-1.46,2-2.49a15.72,15.72,0,0,0,1.15-3.65c.09-.43-.14-.67-.39-.67s-.42.16-.5.49c-.3,1.7-1.11,4.13-2.12,5a.19.19,0,0,1-.13.06c-.16,0-.28-.23-.37-.42s.12-1.16.16-1.4c.31-1.15.58-2.37.77-3.53C159.49,33.44,159.34,33.3,159.18,33.3Z" transform="translate(-20.48)"/>
  <path class="cls-2" d="M173.89,32.42l-.16,0a25.15,25.15,0,0,1-6.55,1.4,12.41,12.41,0,0,0-6,2.06.47.47,0,0,0,.26.8h0v-.06a25.58,25.58,0,0,1,6.25-1.52,23.71,23.71,0,0,0,6.32-1.45C174.68,33.44,174.38,32.42,173.89,32.42Z" transform="translate(-20.48)"/>
  <path class="cls-2" d="M154.12,28.13h-.2a2.67,2.67,0,0,0-1.2.43.6.6,0,0,0-.27.54,2.07,2.07,0,0,0,.58,1.77,1.82,1.82,0,0,0,1.58,0c.35-.18.31-1-.08-1a.78.78,0,0,0-.22,0c-.2,0-.4,0-.6,0h-.22c-.23,0-.27-.29-.27-.57a2,2,0,0,1,.95-.24h.25a.2.2,0,0,0,.11,0,.39.39,0,0,0,.27-.63A.66.66,0,0,0,154.12,28.13Z" transform="translate(-20.48)"/>
  <path class="cls-2" d="M192,15c-.12,0-.26.13-.31.33a2.27,2.27,0,0,0,2.26,3,2.11,2.11,0,0,0,1.48-.53c.31-.31.2-1-.15-1l-.22,0c-.47,0-1,.27-1.44.27h-.11c-.77,0-1-.73-1.28-1.71C192.17,15.05,192.08,15,192,15Z" transform="translate(-20.48)"/>
  <path class="cls-2" d="M166.71,27.29c-.18,0-.36.13-.42.42a1.09,1.09,0,0,1-.07.3.09.09,0,0,1,0,.06c-.19,0-.41-.49-.56-.67a.23.23,0,0,0-.14,0c-.16,0-.34.15-.29.47.16.73.58,1.21,1.08,1.21a1.37,1.37,0,0,0,.77-1.21C167.11,27.47,166.91,27.29,166.71,27.29Z" transform="translate(-20.48)"/>
  <path class="cls-2" d="M170.66,25.23a.4.4,0,0,0-.32.17,5.77,5.77,0,0,0-.38,1c-.06.15-.11.21-.17.23a1.6,1.6,0,0,0,0-.23.57.57,0,0,0-.1-.27c-.07-.18-.16-.35-.27-.35h0c-.19,0-.31.24-.31.55h0v.05a3.5,3.5,0,0,1,0,.61.51.51,0,0,0,.23.54.84.84,0,0,0,.47.15,1,1,0,0,0,.73-.39,6.16,6.16,0,0,0,.62-1.34C171.17,25.48,170.92,25.23,170.66,25.23Zm-1.2.77a.2.2,0,0,1,.11,0A.23.23,0,0,0,169.46,26Z" transform="translate(-20.48)"/>
  <path class="cls-2" d="M173.46,23.53c-.13,0-.25.11-.27.35s-.3.6-.23,1,.23.61.47.61a2.07,2.07,0,0,0,.58-.12,1.6,1.6,0,0,0,.61-.67,1.35,1.35,0,0,0,0-1,.35.35,0,0,0-.29-.2c-.13,0-.26.11-.32.32a.6.6,0,0,0-.08.3v.06a.37.37,0,0,1,0,.14l0,.05s-.06.05-.09.05l-.06,0a2.08,2.08,0,0,0,.06-.63C173.73,23.66,173.59,23.53,173.46,23.53Z" transform="translate(-20.48)"/>
  <path class="cls-2" d="M179,21.37a.5.5,0,0,0-.43.32,7.82,7.82,0,0,1-.27,1h0l-.34-.23a.34.34,0,0,1,.15-.19c0-.06.17-.19.15-.2.23-.11.19-.72-.07-.72h-.09c-.46,0-.88.47-1,1.22,0,.18,0,.43.11.49.34.35.7.71,1.08.71a.68.68,0,0,0,.43-.17A2.89,2.89,0,0,0,179.4,22C179.43,21.57,179.23,21.37,179,21.37Z" transform="translate(-20.48)"/>
  <path class="cls-2" d="M184.19,19.66l-.12,0c-.16.06-.23.31-.23.55s0,.42,0,.67V21c-.06,0-.11-.12-.1-.12l.06.06-.08-.12,0-.06v-.19a.23.23,0,0,1,0-.07.34.34,0,0,0,0-.17.15.15,0,0,0,0-.14.32.32,0,0,0-.29-.42h-.08v-.06h-.07c-.08.06-.12.06-.16.12a1.63,1.63,0,0,0-.19.37,1.33,1.33,0,0,0,0,.79,1.27,1.27,0,0,0,.62.85A.59.59,0,0,0,184,22a.69.69,0,0,0,.54-.33,2,2,0,0,0,0-1.77A.43.43,0,0,0,184.19,19.66ZM183.88,21v0l0,0S183.84,21,183.88,21Z" transform="translate(-20.48)"/>
  <path class="cls-2" d="M186.6,18.34a.37.37,0,0,0-.3.19,3,3,0,0,0-.27.85c-.11.24,0,.61.2.67a2,2,0,0,0,.9.34.59.59,0,0,0,.52-.28,2,2,0,0,0,.08-1.46c-.08-.22-.22-.31-.35-.31s-.31.13-.37.37a.41.41,0,0,0-.13-.24A.38.38,0,0,0,186.6,18.34Zm.06.66a.3.3,0,0,1,.25.17l0-.07h0l0,.07a.08.08,0,0,1,0,0h0s0,0,0,0v0l-.33-.13c0,.09.07.18.11.27a.29.29,0,0,0,.22-.14h0a.88.88,0,0,0-.07.2l.07-.09a.18.18,0,0,0,0-.1l.06,0v0l0-.07,0,0h0l0-.06,0,0a0,0,0,0,0,0,0s0,.06,0,.09v0h0l0,.11h0a0,0,0,0,0,0,0l0,.11h0v0a.15.15,0,0,0,0,.06s0,0,0,0v0c0,.32-.17.47-.32.47s-.34-.18-.34-.53a.87.87,0,0,1,0-.25l.07.07-.07-.09A.32.32,0,0,1,186.66,19Zm-.24.2v.06l.08.08-.05,0,.05.06s-.08.06,0,.06.15.18.19.18a.05.05,0,0,0,0,0l0,.07s0,.08,0,.08a.31.31,0,0,0,0-.07c0-.06,0-.12,0-.18v0a.41.41,0,0,1-.08.13l-.08-.2h0a.2.2,0,0,1-.15-.06.19.19,0,0,0,.11,0Z" transform="translate(-20.48)"/>
  <polyline class="cls-3" points="12.86 31.19 131.16 0 131.16 21.45 12.86 52.64"/>
  <line class="cls-4" x1="336.59" y1="39.82" x2="44.4" y2="39.82"/>
  <text class="cls-5" transform="translate(0 37.72) scale(1.02 1)"><tspan class="cls-6">T</tspan><tspan x="10.34" y="0">rip</tspan><tspan class="cls-7" x="37.77" y="0">p</tspan><tspan class="cls-8" x="50.73" y="0">y</tspan><tspan class="cls-6" x="61.33" y="0">T</tspan><tspan class="cls-9" x="71.66" y="0">r</tspan><tspan class="cls-10" x="79.56" y="0">a</tspan><tspan class="cls-7" x="91.43" y="0">v</tspan><tspan x="102.07" y="0">el</tspan></text>
  <line class="cls-11" x1="3.64" y1="52.64" x2="9.25" y2="52.64"/>
  <line x1="12.86" y1="52.64" x2="18.47" y2="52.64"/>
  <g>
    <path class="cls-12" d="M25.55,49.26a5.73,5.73,0,0,1,.51-.86" transform="translate(-20.48)"/>
    <path class="cls-13" d="M28.37,46.47c10.74-5.88,43.4,3.11,45.59,2.79,2.45-.36,39.34.83,39.58-4s-7.37-7.2-12.43-3.56A2.66,2.66,0,0,0,100.05,43c-.93,2.82,4.87,7.42,7.9,9,0,0,7.59,4.1,41.33-10.82" transform="translate(-20.48)"/>
    <path class="cls-12" d="M150.67,40.58l.91-.41" transform="translate(-20.48)"/>
  </g>
  <path class="cls-11" d="M135.48-18.55" transform="translate(-20.48)"/>
  <path class="cls-14" d="M112.35,38" transform="translate(-20.48)"/>
  <path class="cls-15" d="M99.68,39.25" transform="translate(-20.48)"/>
  <path class="cls-16" d="M76.41,45.18" transform="translate(-20.48)"/>
  <path class="cls-16" d="M99.68,39.25" transform="translate(-20.48)"/>
</svg>
