<svg id="App_Icon_Kit_B" data-name="App Icon Kit B" xmlns="http://www.w3.org/2000/svg" xmlns:xlink="http://www.w3.org/1999/xlink" width="301" height="300" viewBox="0 0 301 300">
  <defs>
    <style>
      .cls-1 {
        fill: none;
      }

      .cls-2 {
        fill: #c0b399;
      }

      .cls-2, .cls-3, .cls-4, .cls-5, .cls-6, .cls-7, .cls-8, .cls-9 {
        fill-rule: evenodd;
      }

      .cls-3 {
        fill: #fff;
      }

      .cls-4 {
        fill: #ece1b2;
      }

      .cls-5 {
        fill: #462b17;
      }

      .cls-6 {
        fill: #fffdfb;
      }

      .cls-7 {
        fill: #ecc4b2;
      }

      .cls-8 {
        fill: #e2a589;
      }

      .cls-9 {
        fill: #fdfaf3;
      }
    </style>
    <symbol id="New_Symbol" data-name="New Symbol" viewBox="0 0 300 300">
      <circle class="cls-1" cx="150" cy="150" r="150"/>
      <text/>      <path class="cls-2" d="M247.32,117.34a31.7,31.7,0,0,0,.9-14.68,15.69,15.69,0,0,0-5.66-11.43C230.71,78.82,213.72,81,197.61,84.88a130.18,130.18,0,0,0-23.55,8.66,21.81,21.81,0,0,0-9-13.05,19.37,19.37,0,0,0-15.11-3.06,21.34,21.34,0,0,0-9.48-14.14c-8.36-5.53-16.51-3.53-24.25.18C106.6,56.89,97.26,51,85.39,56.68,77.7,60.33,72.69,65.74,70.82,72c-2,6.73-.4,14.44,5.41,22,10.2,13.28,20.63,26.32,31.05,39.36L88.08,146a45.35,45.35,0,0,0-10.27-5.85c-9.66-3.75-19.67-.17-28,5.08A19.6,19.6,0,0,0,41,156.28c-1.73,5.78-.58,12.38,3.52,18.38,1.39,2.05,3,4,4.35,6.07a20.85,20.85,0,0,0-1.34,3.38,22,22,0,0,0,.72,14.63,21.66,21.66,0,0,0,16.4,13.16c.65,2.44,1.49,4.79,2.29,7.27,4.21,12.2,15.39,17.57,26.75,12.55,8.74-4,16.94-9.71,19.9-19.6.07-.22.14-.45.2-.68a55.63,55.63,0,0,0,1.26-11.93l22.33-9.23,14.45,52.11a40.51,40.51,0,0,0,4.43,12c7.05,10.94,19.26,10.8,29.14,5.59,7.22-3.8,10.8-8.94,12.59-14.92,1.43-4.78,1.72-10.09,1.82-15.69,6-3.46,11.36-7.66,13.44-14.58a23,23,0,0,0-4.9-21.66,20.61,20.61,0,0,0,5.41-8.89,19.74,19.74,0,0,0,.84-5.79,21.71,21.71,0,0,0-9.87-19C221.6,149.72,241.9,135.41,247.32,117.34ZM64.56,153.43l-.15.08a5.17,5.17,0,0,1,.1-.68C64.56,152.68,64.59,152.81,64.56,153.43Z"/>
      <path class="cls-3" d="M258.85,111.2a31.58,31.58,0,0,0,.9-14.62,16.75,16.75,0,0,0-5.81-11.47C242.1,72.7,225.21,75.05,209.1,79a120.3,120.3,0,0,0-23.51,8.51,21.4,21.4,0,0,0-9.22-12.95,19.45,19.45,0,0,0-15.07-3.2,20.91,20.91,0,0,0-9.38-14c-8.46-5.72-16.51-3.54-24.39.13-9.41-6.67-18.93-12.43-30.61-6.88C89.16,54.23,84.1,59.67,82.22,66c-2,6.77-.38,14.52,5.49,22.1,10.2,13.28,20.49,26.27,30.92,39.31L99.47,139.88A50.68,50.68,0,0,0,89.2,134c-9.66-3.74-19.58,0-27.88,5.13a19.78,19.78,0,0,0-8.87,11.16c-1.73,5.78-.59,12.36,3.6,18.27a62.42,62.42,0,0,0,4.34,6.07A19.72,19.72,0,0,0,59,178.19a22.06,22.06,0,0,0,17,27.73c.84,2.34,1.64,4.83,2.34,7.13,4.2,12.2,15.34,17.71,26.89,12.6,8.6-3.83,16.76-9.58,19.64-19.19.1-.33.19-.66.27-1a39.79,39.79,0,0,0,1.27-11.93l22.33-9.23,14.44,52.11a44.32,44.32,0,0,0,4.58,12c6.95,10.76,19.12,10.76,29.18,5.45,7.19-3.79,10.73-8.91,12.51-14.86,1.43-4.8,1.74-10.14,1.9-15.74,6-3.45,11.19-7.56,13.24-14.4a21.66,21.66,0,0,0,.86-4.91,21.25,21.25,0,0,0-5.74-16.84,20.28,20.28,0,0,0,5.51-9,22.75,22.75,0,0,0,.92-5.8,21.68,21.68,0,0,0-9.87-19C233,143.6,253.43,129.29,258.85,111.2ZM76.08,147.48l-.18.1a2.87,2.87,0,0,1,0-.76C76,146.7,76,146.85,76.08,147.48Z"/>
      <path class="cls-4" d="M169.87,94.91a5.6,5.6,0,0,0-.36-4.18,5.21,5.21,0,0,0-7.28-2.47L142,98.82l5,10,20.27-10.56A5.66,5.66,0,0,0,169.87,94.91Z"/>
      <path class="cls-5" d="M172.82,97c1.84-6.16-4.51-14.26-11.78-10L138.39,98.86,146,113.63l22.51-11.86A7.71,7.71,0,0,0,172.82,97Zm-5.49-1.65A2.75,2.75,0,0,1,166.07,97L148,106.53l-2.58-5.3,17.94-9.46a2.83,2.83,0,0,1,2.21-.2,3,3,0,0,1,1.7,1.53A3.37,3.37,0,0,1,167.33,95.35Z"/>
      <path class="cls-4" d="M145.39,77.86a6,6,0,0,0-.33-4.29,5.47,5.47,0,0,0-7.28-2.46l-20.31,10.7,5,10,20.31-10.71A5.24,5.24,0,0,0,145.39,77.86Z"/>
      <path class="cls-5" d="M148.18,79.81c1.82-6.08-4.25-13.82-11.54-10L114.13,81.7l7.46,14.72L144.1,84.56A7.93,7.93,0,0,0,148.18,79.81Zm-5.06-1.76a2.91,2.91,0,0,1-1.44,1.73l-17.94,9.45-2.61-5.16,18-9.6C141.3,73.31,143.85,75.6,143.12,78.05Z"/>
      <path class="cls-6" d="M186.57,118.5a.9.9,0,0,0-.4-1.06l-76.88-52a3.58,3.58,0,0,0-3.76-.32l-6.59,3.47A3.93,3.93,0,0,0,97,70.92a4.07,4.07,0,0,0,.72,3.73l50.15,63.57a.88.88,0,0,0,1.12.38L186.15,119A.84.84,0,0,0,186.57,118.5Z"/>
      <path class="cls-5" d="M188.87,119.22a3.64,3.64,0,0,0-1.41-4l-76.88-52a6.19,6.19,0,0,0-6.49-.46l-6.41,3.37a7.07,7.07,0,0,0-3.19,4,1,1,0,0,0,0,.63,7.15,7.15,0,0,0,1.24,5.64l50.15,63.58a3.27,3.27,0,0,0,4.19.94l37.14-19.58A3.38,3.38,0,0,0,188.87,119.22ZM182.29,118,149,135.44,99.78,73a1.29,1.29,0,0,1-.3-1,1.71,1.71,0,0,1,.76-1l6.41-3.37c.41-.34,1-.15,1.39,0Z"/>
      <path class="cls-4" d="M209.57,173.32a5.6,5.6,0,0,0-.36-4.18,5.47,5.47,0,0,0-7.28-2.47l-20.26,10.56,5,10L207,176.62A5.66,5.66,0,0,0,209.57,173.32Z"/>
      <path class="cls-5" d="M212.33,175.39c1.82-6.09-4.25-13.85-11.5-10.12l-22.51,11.87,7.32,14.67,22.6-11.67A7.9,7.9,0,0,0,212.33,175.39Zm-5-1.9a3,3,0,0,1-1.49,1.87l-17.89,9.31-2.61-5.16,17.93-9.46a2.67,2.67,0,0,1,3.78,1.28A2.57,2.57,0,0,1,207.31,173.49Z"/>
      <path class="cls-4" d="M209.11,203.56a5.88,5.88,0,0,0-.43-4.34,5.48,5.48,0,0,0-7.28-2.47l-20.31,10.71,5.17,10,20.13-10.61A5.46,5.46,0,0,0,209.11,203.56Z"/>
      <path class="cls-5" d="M212.17,205.52c1.79-6-4-13.58-11.13-10.22l-22.51,11.87L186,221.89,208.49,210A7.7,7.7,0,0,0,212.17,205.52Zm-4.7-1.86a2.87,2.87,0,0,1-1.4,1.59l-17.93,9.45-2.75-5.21L203.32,200a3,3,0,0,1,4.2,3.48Z"/>
      <path class="cls-6" d="M194.45,234.75a4.68,4.68,0,0,0,.19-1l2.75-94.13a.77.77,0,0,0-1.12-.86l-37.19,19.72a.68.68,0,0,0-.47.49.59.59,0,0,0,0,.47L180.43,238a4.07,4.07,0,0,0,5.7,2.57l6.4-3.37A4,4,0,0,0,194.45,234.75Z"/>
      <path class="cls-5" d="M196.9,235.69a6.43,6.43,0,0,0,.28-1.7L200,139.86a3.63,3.63,0,0,0-1.51-3.21,3.47,3.47,0,0,0-3.48-.22L157.82,156a4,4,0,0,0-1.57,2.16,3.74,3.74,0,0,0-.1,1.87L178,238.75a6.5,6.5,0,0,0,9.21,4.23l6.4-3.38A6.48,6.48,0,0,0,196.9,235.69ZM192,233.91a1.49,1.49,0,0,1-.61.82L185,238.25a1.34,1.34,0,0,1-1.87-1l-21.58-77.18,33.3-17.55-2.74,91A1,1,0,0,1,192,233.91Z"/>
      <path class="cls-7" d="M244.29,105.22c1.83-6.11-2.77-13.06-9.67-12.72-16.92.93-29.73,3.56-48.35,13.26L165.74,116.7l-76.6,49.94a46.34,46.34,0,0,0-14.3,14.81,5.76,5.76,0,0,0-.49,1.15,5.5,5.5,0,0,0,4.8,7.12,45.55,45.55,0,0,0,20.06-3.19l84.25-34.83,20.67-10.9c18.49-9.74,28-18.88,38.53-32.42A9.82,9.82,0,0,0,244.29,105.22Z"/>
      <path class="cls-5" d="M246.76,105.93c2.32-7.73-3.53-16.55-12.25-16.15-16.63,1-30,3.46-49.4,13.68l-20.49,10.8-76.92,50a49.83,49.83,0,0,0-15.06,15.81c-.31.52-.48,1.1-.84,1.77l.14,0a8.11,8.11,0,0,0,7,10.47,46.14,46.14,0,0,0,21.21-3.43l84.39-34.79,20.67-10.9c19.4-10.22,29.23-19.89,39.39-33.24A12.32,12.32,0,0,0,246.76,105.93Zm-4.91-1.52a6.77,6.77,0,0,1-1.13,2.2A104.91,104.91,0,0,1,203,138.5l-20.63,10.76L98.23,184.14a46.4,46.4,0,0,1-19.09,3A3.07,3.07,0,0,1,77,185.66a2.78,2.78,0,0,1-.26-2.11,2.73,2.73,0,0,1,.33-.72,41.93,41.93,0,0,1,13.44-14l76.59-49.94,20.49-10.8a102.39,102.39,0,0,1,47.2-13C239.85,94.79,243.17,100,241.85,104.41Z"/>
      <path class="cls-8" d="M109.45,201.06a10.59,10.59,0,0,0,.44-2.83l.54-27.54a5.07,5.07,0,0,0-2.13-4.21L86,151a9.67,9.67,0,0,0-10-.54l-7.46,3.82a2,2,0,0,0-1,1.24,2.32,2.32,0,0,0,.31,2L84.5,180.6a4.67,4.67,0,0,1,.77,1.53l8.9,27.41a2,2,0,0,0,3,1.34l7.46-3.82A10.25,10.25,0,0,0,109.45,201.06Z"/>
      <path class="cls-5" d="M111.93,202a12.28,12.28,0,0,0,.51-3.49l.54-27.54a8.14,8.14,0,0,0-3.25-6.65L87.4,148.79A12,12,0,0,0,74.84,148L67.34,152A5.41,5.41,0,0,0,65,154.66l.11.67a5.47,5.47,0,0,0,.69,3.88l16.8,23.12a2.33,2.33,0,0,1,.39.77l8.9,27.41a4.61,4.61,0,0,0,6.54,2.85l7.5-4A12.86,12.86,0,0,0,111.93,202Zm-5.1-1.75a7.11,7.11,0,0,1-3.57,4.19l-6.91,3.52-8.64-26.7a11,11,0,0,0-1.16-2.29L70.21,156.27,77,152.56a7.41,7.41,0,0,1,7.37.59l22.33,15.49a2.46,2.46,0,0,1,1.1,2l-.54,27.55A9.45,9.45,0,0,1,106.83,200.2Z"/>
      <path class="cls-9" d="M195,135.25a2.79,2.79,0,0,0-3.59-3.36l-39,18.15a2.51,2.51,0,0,0-1.37,1.61,2.63,2.63,0,0,0,.16,1.94,2.56,2.56,0,0,0,3.45,1.33l39-18A2.84,2.84,0,0,0,195,135.25Z"/>
      <path class="cls-9" d="M215.36,125.83a2.49,2.49,0,0,0-.17-1.88,2.56,2.56,0,0,0-3.45-1.33l-10.54,4.83a2.57,2.57,0,0,0-1.46,1.64,2.77,2.77,0,0,0,.1,1.86,2.59,2.59,0,0,0,3.41,1.47L214,127.5A2.79,2.79,0,0,0,215.36,125.83Z"/>
    </symbol>
  </defs>
  <g id="Circular_App_Icon_and_Badge" data-name="Circular App Icon and Badge">
    <g id="Main">
      <g id="_1024x1024" data-name="1024x1024">
        <use id="_YOUR_ICON_HERE_" data-name="[YOUR ICON HERE]" width="300" height="300" xlink:href="#New_Symbol"/>
      </g>
    </g>
  </g>
</svg>
