<svg id="App_Icon_Kit_B" data-name="App Icon Kit B" xmlns="http://www.w3.org/2000/svg" xmlns:xlink="http://www.w3.org/1999/xlink" width="909.63" height="404.22" viewBox="0 0 909.63 404.22">
  <defs>
    <style>
      .cls-1 {
        fill: none;
      }

      .cls-2 {
        fill: #c0b399;
      }

      .cls-2, .cls-3, .cls-4, .cls-5, .cls-6, .cls-7, .cls-8, .cls-9 {
        fill-rule: evenodd;
      }

      .cls-3 {
        fill: #fff;
      }

      .cls-4 {
        fill: #f6d436;
      }

      .cls-5 {
        fill: #462b17;
      }

      .cls-6 {
        fill: #fffdfb;
      }

      .cls-7 {
        fill: #ff4b41;
      }

      .cls-8 {
        fill: #fa7256;
      }

      .cls-9 {
        fill: #fdfaf3;
      }
    </style>
    <symbol id="New_Symbol" data-name="New Symbol" viewBox="0 0 339.02 300">
      <circle class="cls-1" cx="150" cy="150" r="150"/>
      <text/>      <path class="cls-2" d="M251,118.91a33.75,33.75,0,0,0,1-15.12,16,16,0,0,0-5.53-11.7C234.84,79.44,217.91,81.85,201.84,86a129,129,0,0,0-23.52,9.16,21.86,21.86,0,0,0-8.88-13.33,18.57,18.57,0,0,0-15-3,21.41,21.41,0,0,0-9.3-14.46c-8.27-5.6-16.4-3.46-24.14.45-9.48-6.67-18.72-12.6-30.58-6.66C82.72,62,77.68,67.65,75.76,74.1c-2.07,7-.53,14.87,5.18,22.58,10,13.56,20.29,26.87,30.54,40.18L92.25,150.09a44.25,44.25,0,0,0-10.16-5.92c-9.59-3.75-19.58,0-27.94,5.53a20.69,20.69,0,0,0-8.86,11.47c-1.77,6-.68,12.75,3.34,18.88,1.36,2.1,2.91,4.09,4.27,6.19a23.37,23.37,0,0,0-.79,18.55,21.18,21.18,0,0,0,16.21,13.37c.62,2.51,1.44,4.91,2.21,7.46C74.6,238.13,85.68,243.54,97,238.25c8.73-4.22,16.95-10.17,20-20.38.07-.23.14-.47.2-.71a59.63,59.63,0,0,0,1.37-12.29l22.31-9.73,13.9,53.47a41.54,41.54,0,0,0,4.3,12.27c6.91,11.18,19.07,10.91,28.95,5.45,7.22-4,10.83-9.32,12.66-15.49,1.47-4.94,1.81-10.41,2-16.17,6-3.62,11.37-8,13.5-15.15a22.76,22.76,0,0,0,.89-5,23.19,23.19,0,0,0-5.55-17.27,21.85,21.85,0,0,0,5.46-9.2,21.46,21.46,0,0,0,.89-6,22.08,22.08,0,0,0-9.64-19.48C225.11,152.51,245.45,137.56,251,118.91ZM68.77,158l-.15.08a7,7,0,0,1,.11-.7C68.78,157.22,68.8,157.35,68.77,158Z"/>
      <path class="cls-3" d="M262.55,112.47a33.63,33.63,0,0,0,1-15.06,17.08,17.08,0,0,0-5.67-11.74c-11.68-12.65-28.51-10-44.58-5.87a120.28,120.28,0,0,0-23.48,9,21.49,21.49,0,0,0-9.06-13.23,18.65,18.65,0,0,0-15-3.14,21.08,21.08,0,0,0-9.21-14.25c-8.37-5.8-16.4-3.47-24.28.39-9.3-6.77-18.72-12.59-30.4-6.76-7.76,3.82-12.84,9.46-14.78,15.95-2.08,7-.51,15,5.27,22.68,10,13.56,20.14,26.82,30.4,40.13l-19.19,13.09a48.22,48.22,0,0,0-10.16-5.92C83.9,134,74,138,65.68,143.33a20.87,20.87,0,0,0-8.94,11.57c-1.77,6-.69,12.72,3.42,18.77a63,63,0,0,0,4.27,6.2A20.9,20.9,0,0,0,63,183.52a22.83,22.83,0,0,0,.67,14.89,21,21,0,0,0,16,13.47c.82,2.41,1.59,5,2.26,7.32C86,231.71,97,237.27,108.57,231.88c8.59-4,16.77-10,19.73-20,.1-.34.19-.68.28-1A43,43,0,0,0,130,198.6l22.31-9.74,13.89,53.48a45.93,45.93,0,0,0,4.44,12.31c6.82,11,18.94,10.87,29,5.3a24.9,24.9,0,0,0,12.59-15.43c1.47-5,1.82-10.46,2-16.22,6-3.61,11.2-7.9,13.31-15a23.59,23.59,0,0,0,.9-5.06A22,22,0,0,0,222.87,191a21.48,21.48,0,0,0,5.57-9.3,23.81,23.81,0,0,0,1-6,22.08,22.08,0,0,0-9.64-19.48C236.55,146.08,257,131.14,262.55,112.47ZM80.29,151.74l-.18.1a3.37,3.37,0,0,1,0-.78C80.17,150.94,80.23,151.09,80.29,151.74Z"/>
      <path class="cls-4" d="M174.14,96.64a6,6,0,0,0-.33-4.3,5,5,0,0,0-7.21-2.46L146.33,101l4.91,10.18,20.28-11.09A6,6,0,0,0,174.14,96.64Z"/>
      <path class="cls-5" d="M177.14,97.51c1.89-6.36-4.35-14.63-11.63-10.13L142.86,99.79l7.42,15.12,22.51-12.45A8,8,0,0,0,177.14,97.51Zm-5.45-1.64a2.94,2.94,0,0,1-1.27,1.7l-18.11,10-2.51-5.43,17.93-9.92a2.76,2.76,0,0,1,2.21-.23,2.93,2.93,0,0,1,1.68,1.56A3.55,3.55,0,0,1,171.69,95.87Z"/>
      <path class="cls-4" d="M149.93,79.36a6.42,6.42,0,0,0-.29-4.41,5.28,5.28,0,0,0-7.22-2.46L122.11,83.72,127,93.9l20.32-11.23A5.54,5.54,0,0,0,149.93,79.36Z"/>
      <path class="cls-5" d="M152.54,80.24c1.87-6.29-4.11-14.18-11.39-10.15L118.64,82.54l7.28,15.07,22.51-12.44A8.32,8.32,0,0,0,152.54,80.24Zm-5-1.76a3,3,0,0,1-1.45,1.79l-17.94,9.92-2.55-5.29,18-10.07C145.75,73.62,148.27,76,147.52,78.48Z"/>
      <path class="cls-6" d="M190.54,120.74a.92.92,0,0,0-.4-1.08l-76-52.73a3.44,3.44,0,0,0-3.73-.3l-6.6,3.65a4.13,4.13,0,0,0-1.93,2.44,4.24,4.24,0,0,0,.68,3.83l49.32,64.9c.33.44.75.58,1.11.38l37.16-20.54A.94.94,0,0,0,190.54,120.74Z"/>
      <path class="cls-5" d="M192.82,121.46a3.75,3.75,0,0,0-1.37-4.13l-76-52.74a6,6,0,0,0-6.46-.4l-6.41,3.54a7.46,7.46,0,0,0-3.22,4.14,1,1,0,0,0,0,.64,7.42,7.42,0,0,0,1.18,5.8l49.32,64.9a3.15,3.15,0,0,0,4.16.92l37.15-20.54A3.55,3.55,0,0,0,192.82,121.46Zm-6.54-1.15L153,138.58,104.58,74.8a1.31,1.31,0,0,1-.29-1.08,1.78,1.78,0,0,1,.77-1l6.41-3.54c.4-.35,1-.16,1.38,0Z"/>
      <path class="cls-4" d="M212.92,176.92a6,6,0,0,0-.32-4.3,5.28,5.28,0,0,0-7.22-2.46l-20.27,11.09L190,191.43l20.27-11.09A5.94,5.94,0,0,0,212.92,176.92Z"/>
      <path class="cls-5" d="M215.5,177.91c1.87-6.29-4.1-14.21-11.35-10.29l-22.51,12.44,7.14,15,22.61-12.25A8.26,8.26,0,0,0,215.5,177.91Zm-5-1.91A3.12,3.12,0,0,1,209,178l-17.9,9.76-2.55-5.28,17.94-9.92a2.57,2.57,0,0,1,3.74,1.28A2.63,2.63,0,0,1,210.52,176Z"/>
      <path class="cls-4" d="M212.18,208.05a6.17,6.17,0,0,0-.39-4.46,5.29,5.29,0,0,0-7.22-2.46l-20.32,11.23,5.06,10.23,20.14-11.13A5.76,5.76,0,0,0,212.18,208.05Z"/>
      <path class="cls-5" d="M214.42,209.18c1.84-6.17-3.9-13.94-11-10.4l-22.52,12.44,7.29,15.08,22.51-12.45A8.1,8.1,0,0,0,214.42,209.18Zm-4.66-1.87a3,3,0,0,1-1.41,1.65l-17.93,9.92-2.7-5.34,17.94-9.91a2.92,2.92,0,0,1,4.14,3.53Z"/>
      <path class="cls-6" d="M197.3,240.31a5.19,5.19,0,0,0,.19-1l3.62-96.91c.09-.79-.56-1.17-1.11-.87l-37.2,20.69a.72.72,0,0,0-.47.51.69.69,0,0,0,0,.49l21,80.58a4,4,0,0,0,5.65,2.58l6.41-3.54A4.2,4.2,0,0,0,197.3,240.31Z"/>
      <path class="cls-5" d="M199.73,241.25a7.45,7.45,0,0,0,.3-1.76l3.62-96.91a3.66,3.66,0,0,0-1.47-3.28,3.34,3.34,0,0,0-3.45-.19l-37.16,20.54a4.15,4.15,0,0,0-1.58,2.24,4,4,0,0,0-.12,1.92l21,80.78a6.32,6.32,0,0,0,9.13,4.26l6.41-3.54A6.8,6.8,0,0,0,199.73,241.25Zm-4.84-1.78a1.42,1.42,0,0,1-.61.84L187.83,244a1.31,1.31,0,0,1-1.86-1l-20.75-79.2,33.31-18.42L195,239.07A1.11,1.11,0,0,1,194.89,239.47Z"/>
      <path class="cls-7" d="M248.11,106.46c1.88-6.3-2.63-13.41-9.5-13-16.85,1.13-29.63,4-48.25,14.15l-20.54,11.49-76.71,52.2a48.39,48.39,0,0,0-14.36,15.39,5.65,5.65,0,0,0-.5,1.2c-1,3.34,1.09,7.06,4.71,7.27a44.56,44.56,0,0,0,20-3.49L187.13,155l20.68-11.44c18.49-10.22,28.05-19.72,38.65-33.77A10.44,10.44,0,0,0,248.11,106.46Z"/>
      <path class="cls-5" d="M250.57,107.17c2.37-8-3.36-17-12-16.49-16.57,1.22-29.9,3.88-49.3,14.6l-20.5,11.34-77,52.26a52.19,52.19,0,0,0-15.13,16.43c-.32.55-.5,1.14-.86,1.84l.14,0c-1.5,5.05,1.79,10.42,6.91,10.69a44.85,44.85,0,0,0,21.14-3.75l84.32-36.7L208.9,146c19.4-10.73,29.27-20.78,39.51-34.63A13,13,0,0,0,250.57,107.17Zm-4.88-1.51a7.39,7.39,0,0,1-1.14,2.28,108.61,108.61,0,0,1-37.87,33.22L186,152.45l-84,36.79a45.12,45.12,0,0,1-19,3.32,3,3,0,0,1-2.38-3.71,3.27,3.27,0,0,1,.34-.74,44,44,0,0,1,13.5-14.54l76.71-52.21L191.63,110a100.93,100.93,0,0,1,47.1-13.89C243.79,95.78,247.05,101.09,245.69,105.66Z"/>
      <path class="cls-8" d="M113,206.53a10.8,10.8,0,0,0,.46-2.92l.8-28.35a5.2,5.2,0,0,0-2.08-4.31L90.1,155.25a9.3,9.3,0,0,0-9.95-.45l-7.46,4a2.15,2.15,0,0,0-1,1.29,2.44,2.44,0,0,0,.29,2.07l16.38,23.57a4.82,4.82,0,0,1,.75,1.57l8.6,28.12a2,2,0,0,0,3,1.34l7.46-4A10.86,10.86,0,0,0,113,206.53Z"/>
      <path class="cls-5" d="M115.46,207.42a12.71,12.71,0,0,0,.55-3.6l.79-28.35a8.25,8.25,0,0,0-3.17-6.8L91.55,153a11.61,11.61,0,0,0-12.49-.66l-7.51,4.15a5.68,5.68,0,0,0-2.36,2.8l.1.69a5.71,5.71,0,0,0,.65,4l16.51,23.62a2.14,2.14,0,0,1,.38.78l8.6,28.12a4.48,4.48,0,0,0,6.49,2.87l7.5-4.15A13.47,13.47,0,0,0,115.46,207.42Zm-5-1.74a7.45,7.45,0,0,1-3.59,4.34l-6.91,3.69-8.36-27.38A11.09,11.09,0,0,0,90.42,184l-16-23.13L81.19,157a7.11,7.11,0,0,1,7.33.53l22.08,15.7a2.48,2.48,0,0,1,1.08,2l-.79,28.35A10.35,10.35,0,0,1,110.41,205.68Z"/>
      <path class="cls-9" d="M198.75,137.89a2.73,2.73,0,0,0-.15-1.94,2.5,2.5,0,0,0-3.39-1.47l-39,19.09a2.59,2.59,0,0,0-1.38,1.67,2.8,2.8,0,0,0,.13,2,2.49,2.49,0,0,0,3.43,1.33l39-18.94A3,3,0,0,0,198.75,137.89Z"/>
      <path class="cls-9" d="M219.13,128a2.69,2.69,0,0,0-.16-1.94,2.48,2.48,0,0,0-3.42-1.33L205,129.8a2.69,2.69,0,0,0-1.46,1.7,3,3,0,0,0,.08,1.92A2.51,2.51,0,0,0,207,134.9l10.72-5.19A2.91,2.91,0,0,0,219.13,128Z"/>
    </symbol>
  </defs>
  <g id="Circular_App_Icon_and_Badge" data-name="Circular App Icon and Badge">
    <g id="Main">
      <g id="_1024x1024" data-name="1024x1024">
        <use id="_YOUR_ICON_HERE_" data-name="[YOUR ICON HERE]" width="339.02" height="300" transform="translate(0 104.22)" xlink:href="#New_Symbol"/>
        <path class="cls-2" d="M896.89-32.42A35,35,0,0,0,898.05-48a16.53,16.53,0,0,0-5.61-12.13c-11.91-13.15-29.31-10.79-45.84-6.59a132.23,132.23,0,0,0-24.22,9.3,22.63,22.63,0,0,0-9-13.84A19,19,0,0,0,798-74.48a22.22,22.22,0,0,0-9.47-15c-8.46-5.85-16.82-3.69-24.79.29-9.7-7-19.15-13.15-31.37-7.11-7.93,3.91-13.13,9.68-15.15,16.33-2.16,7.16-.63,15.36,5.18,23.37,10.22,14.08,20.67,27.9,31.12,41.73L733.64-1.34a45.12,45.12,0,0,0-10.41-6.19c-9.82-3.95-20.11-.11-28.73,5.51a21.31,21.31,0,0,0-9.16,11.78c-1.86,6.15-.79,13.17,3.3,19.53,1.39,2.18,3,4.26,4.35,6.44a24.7,24.7,0,0,0-1.42,3.6,24.31,24.31,0,0,0,.5,15.55c2.94,7.46,9.07,12.67,16.56,13.94.63,2.59,1.45,5.08,2.22,7.72C715,89.49,726.3,95.16,738,89.78c9-4.29,17.48-10.39,20.66-20.91.08-.24.15-.49.21-.73a61.36,61.36,0,0,0,1.48-12.69l23-9.9,13.94,55.35a43.18,43.18,0,0,0,4.34,12.7c7,11.61,19.52,11.42,29.7,5.84a25.76,25.76,0,0,0,13.11-15.91c1.54-5.09,1.92-10.74,2.11-16.69,6.18-3.7,11.74-8.18,14-15.55a25.12,25.12,0,0,0-4.65-23,22.54,22.54,0,0,0,5.66-9.47,22,22,0,0,0,1-6.16,22.86,22.86,0,0,0-9.79-20.19C870.08,2.11,891.07-13.18,896.89-32.42ZM709.47,6.65l-.15.08a5.13,5.13,0,0,1,.12-.73C709.48,5.85,709.51,6,709.47,6.65Z" transform="translate(-0.7 105.22)"/>
        <path class="cls-3" d="M908.78-39a35,35,0,0,0,1.16-15.55,17.75,17.75,0,0,0-5.76-12.18C892.27-79.87,875-77.3,858.43-73.1A123,123,0,0,0,834.26-64,22.16,22.16,0,0,0,825-77.69,19,19,0,0,0,809.69-81a21.78,21.78,0,0,0-9.37-14.8c-8.56-6-16.82-3.7-24.93.24-9.51-7.07-19.16-13.15-31.19-7.21-8,3.89-13.25,9.68-15.27,16.37-2.18,7.2-.63,15.44,5.26,23.48,10.22,14.08,20.53,27.85,31,41.68L745.38-7.9A49.48,49.48,0,0,0,735-14.08c-9.82-4-20,.09-28.59,5.56a21.47,21.47,0,0,0-9.24,11.89c-1.86,6.15-.8,13.14,3.38,19.42a67.31,67.31,0,0,0,4.35,6.43A22.35,22.35,0,0,0,703.35,33a23.67,23.67,0,0,0,.6,15.39c2.8,7.41,9,12.81,16.37,14,.82,2.49,1.6,5.13,2.27,7.57,4.11,13,15.41,18.78,27.29,13.3,8.86-4.11,17.29-10.25,20.39-20.48.11-.35.21-.7.3-1.06A44.46,44.46,0,0,0,772.05,49l23-9.89L809,94.5a47.11,47.11,0,0,0,4.49,12.75c6.93,11.41,19.37,11.37,29.75,5.69a25.64,25.64,0,0,0,13-15.86c1.55-5.11,1.94-10.79,2.2-16.74C864.57,76.66,870,72.26,872.18,65a25,25,0,0,0,1-5.22,22.85,22.85,0,0,0-5.6-17.89,22.22,22.22,0,0,0,5.78-9.57,25.2,25.2,0,0,0,1-6.16,22.9,22.9,0,0,0-9.78-20.2C881.87-4.45,903-19.73,908.78-39ZM721.34.28l-.18.1a3.09,3.09,0,0,1,0-.81C721.22-.56,721.29-.4,721.34.28Z" transform="translate(-0.7 105.22)"/>
        <path class="cls-4" d="M818.08-56a6.25,6.25,0,0,0-.31-4.45,5.17,5.17,0,0,0-7.4-2.59L789.48-51.71l5,10.56,20.89-11.31A6.14,6.14,0,0,0,818.08-56Z" transform="translate(-0.7 105.22)"/>
        <path class="cls-5" d="M821.15-55.06c2-6.56-4.37-15.14-11.88-10.55L785.93-53l7.52,15.68L816.65-50A8.22,8.22,0,0,0,821.15-55.06Zm-5.58-1.73A3.05,3.05,0,0,1,814.26-55L795.58-44.83,793-50.46l18.48-10.12a2.78,2.78,0,0,1,2.27-.22,3,3,0,0,1,1.72,1.61A3.76,3.76,0,0,1,815.57-56.79Z" transform="translate(-0.7 105.22)"/>
        <path class="cls-4" d="M793.32-74a6.67,6.67,0,0,0-.27-4.56,5.42,5.42,0,0,0-7.4-2.6L764.71-69.71l5,10.56,20.94-11.46A5.77,5.77,0,0,0,793.32-74Z" transform="translate(-0.7 105.22)"/>
        <path class="cls-5" d="M796-73.09c2-6.47-4.13-14.67-11.64-10.56l-23.2,12.7,7.38,15.63L791.74-68A8.59,8.59,0,0,0,796-73.09Zm-5.15-1.85a3.13,3.13,0,0,1-1.5,1.84L770.86-63l-2.59-5.48L786.8-78.73C789.06-80,791.64-77.55,790.85-74.94Z" transform="translate(-0.7 105.22)"/>
        <path class="cls-6" d="M834.77-31a1,1,0,0,0-.4-1.12l-77.76-55a3.54,3.54,0,0,0-3.84-.33L746-83.73a4.24,4.24,0,0,0-2,2.52,4.42,4.42,0,0,0,.67,4L794.91-9.84c.33.46.76.61,1.13.4l38.29-21A.89.89,0,0,0,834.77-31Z" transform="translate(-0.7 105.22)"/>
        <path class="cls-5" d="M837.11-30.2a3.92,3.92,0,0,0-1.38-4.28L758-89.52a6.12,6.12,0,0,0-6.62-.46l-6.61,3.61a7.69,7.69,0,0,0-3.33,4.26,1,1,0,0,0,0,.66,7.77,7.77,0,0,0,1.17,6L792.79-8a3.21,3.21,0,0,0,4.26,1l38.29-21A3.69,3.69,0,0,0,837.11-30.2Zm-6.71-1.24L796.12-12.8,746.77-79a1.38,1.38,0,0,1-.29-1.11,1.82,1.82,0,0,1,.79-1.08l6.61-3.61c.42-.37,1-.17,1.42,0Z" transform="translate(-0.7 105.22)"/>
        <path class="cls-4" d="M857.41,27.25a6.24,6.24,0,0,0-.31-4.45,5.41,5.41,0,0,0-7.4-2.59l-20.88,11.3,5,10.56,20.89-11.31A6.16,6.16,0,0,0,857.41,27.25Z" transform="translate(-0.7 105.22)"/>
        <path class="cls-5" d="M860.05,28.29c2-6.49-4.12-14.71-11.59-10.72l-23.2,12.7,7.24,15.58,23.3-12.5A8.56,8.56,0,0,0,860.05,28.29Zm-5.1-2a3.24,3.24,0,0,1-1.55,2L835,38.24l-2.59-5.48,18.49-10.12A2.65,2.65,0,0,1,854.7,24,2.77,2.77,0,0,1,855,26.28Z" transform="translate(-0.7 105.22)"/>
        <path class="cls-4" d="M856.45,59.41a6.43,6.43,0,0,0-.37-4.62,5.42,5.42,0,0,0-7.4-2.59L827.74,63.65l5.13,10.61,20.75-11.35A5.93,5.93,0,0,0,856.45,59.41Z" transform="translate(-0.7 105.22)"/>
        <path class="cls-5" d="M858.75,60.59c1.92-6.37-3.92-14.43-11.22-10.83l-23.2,12.7,7.38,15.63,23.2-12.7A8.39,8.39,0,0,0,858.75,60.59Zm-4.78-2a3.13,3.13,0,0,1-1.45,1.7L834,70.43,831.3,64.9l18.48-10.11A3,3,0,0,1,854,58.47Z" transform="translate(-0.7 105.22)"/>
        <path class="cls-6" d="M841,92.63a4.86,4.86,0,0,0,.21-1.06L845.5-8.53c.09-.82-.58-1.22-1.14-.91L806,11.67a.74.74,0,0,0-.49.52.66.66,0,0,0,0,.5l21,83.41a4.05,4.05,0,0,0,5.79,2.71L839,95.2A4.27,4.27,0,0,0,841,92.63Z" transform="translate(-0.7 105.22)"/>
        <path class="cls-5" d="M843.46,93.62a7.38,7.38,0,0,0,.31-1.82L848.1-8.3a3.8,3.8,0,0,0-1.49-3.4,3.41,3.41,0,0,0-3.55-.23L804.77,9a4.39,4.39,0,0,0-1.64,2.31,4.21,4.21,0,0,0-.13,2l21.12,83.62c1.07,4.27,5.58,6.52,9.35,4.46l6.6-3.61A7,7,0,0,0,843.46,93.62Zm-5-1.88a1.47,1.47,0,0,1-.64.87l-6.64,3.77a1.34,1.34,0,0,1-1.9-1l-20.83-82,34.33-18.8-4.25,96.74A1.41,1.41,0,0,1,838.5,91.74Z" transform="translate(-0.7 105.22)"/>
        <path class="cls-7" d="M894-45.3c2-6.5-2.62-13.87-9.68-13.48-17.31,1.05-30.45,3.9-49.64,14.27L813.5-32.79,734.39,20.6a49.83,49.83,0,0,0-14.85,15.79,6.71,6.71,0,0,0-.53,1.24c-1,3.44,1.08,7.3,4.8,7.54a45.35,45.35,0,0,0,20.56-3.46L831.06,4.35,852.37-7.31c19-10.43,28.92-20.18,39.9-34.62A10.66,10.66,0,0,0,894-45.3Z" transform="translate(-0.7 105.22)"/>
        <path class="cls-5" d="M896.51-44.55c2.49-8.22-3.35-17.58-12.27-17.13-17,1.14-30.73,3.79-50.72,14.74L812.39-35.38,733,18.07a53.54,53.54,0,0,0-15.65,16.87c-.33.56-.52,1.17-.89,1.89l.14.05c-1.57,5.2,1.77,10.78,7,11.1a46,46,0,0,0,21.74-3.73L832.16,6.94,853.47-4.72c20-10.94,30.2-21.26,40.8-35.49A13.51,13.51,0,0,0,896.51-44.55Zm-5-1.6a7.56,7.56,0,0,1-1.19,2.35,111.53,111.53,0,0,1-39.1,34.05L830,1.77l-86.54,37.4a46,46,0,0,1-19.57,3.3,3,3,0,0,1-2.07-4.61,45.31,45.31,0,0,1,14-14.93l79.11-53.39L836-42a103,103,0,0,1,48.46-14C889.62-56.37,892.93-50.86,891.51-46.15Z" transform="translate(-0.7 105.22)"/>
        <path class="cls-8" d="M754.61,57.12a11.48,11.48,0,0,0,.48-3l1-29.29A5.34,5.34,0,0,0,754,20.35L731.4,4a9.52,9.52,0,0,0-10.22-.53l-7.69,4.08a2.2,2.2,0,0,0-1,1.32,2.52,2.52,0,0,0,.28,2.14l16.67,24.48a5.11,5.11,0,0,1,.77,1.62l8.65,29.12a2,2,0,0,0,3,1.4l7.69-4.08A11.17,11.17,0,0,0,754.61,57.12Z" transform="translate(-0.7 105.22)"/>
        <path class="cls-5" d="M757.12,58.06a13.57,13.57,0,0,0,.58-3.72l1-29.28A8.62,8.62,0,0,0,755.48,18L732.9,1.62A11.86,11.86,0,0,0,720.07.85l-7.73,4.23A5.81,5.81,0,0,0,709.9,8l.09.71a6,6,0,0,0,.64,4.12L727.45,37.3a2.81,2.81,0,0,1,.38.82l8.66,29.11a4.59,4.59,0,0,0,6.64,3L750.86,66A13.92,13.92,0,0,0,757.12,58.06Zm-5.18-1.84a7.72,7.72,0,0,1-3.71,4.46l-7.13,3.77L732.69,36.1a10.84,10.84,0,0,0-1.15-2.44l-16.33-24,7-4a7.28,7.28,0,0,1,7.53.61l22.58,16.38a2.57,2.57,0,0,1,1.1,2.08l-1,29.29A10.33,10.33,0,0,1,751.94,56.22Z" transform="translate(-0.7 105.22)"/>
        <path class="cls-9" d="M843.1-13.18a2.82,2.82,0,0,0-.15-2,2.57,2.57,0,0,0-3.47-1.55L799.29,2.71a2.72,2.72,0,0,0-1.43,1.72A2.86,2.86,0,0,0,798,6.48a2.54,2.54,0,0,0,3.51,1.4l40.15-19.29A3.06,3.06,0,0,0,843.1-13.18Z" transform="translate(-0.7 105.22)"/>
        <path class="cls-9" d="M864.09-23.27a2.79,2.79,0,0,0-.15-2,2.55,2.55,0,0,0-3.51-1.4L849.58-21.5a2.82,2.82,0,0,0-1.52,1.75,3.06,3.06,0,0,0,.08,2,2.57,2.57,0,0,0,3.46,1.55l11-5.27A3.07,3.07,0,0,0,864.09-23.27Z" transform="translate(-0.7 105.22)"/>
      </g>
    </g>
  </g>
</svg>
